Coordinates
version=1
nRows=9
nColumns=36
inDegrees=yes

Units are S.I. units (second, meters, Newtons, ...)
If the header above contains a line with 'inDegrees', this indicates whether rotational values are in degrees (yes) or radians (no).

endheader
time	pelvis_tilt	pelvis_list	pelvis_rotation	pelvis_tx	pelvis_ty	pelvis_tz	hip_flexion_r	hip_adduction_r	hip_rotation_r	knee_angle_r	knee_angle_r_beta	ankle_angle_r	subtalar_angle_r	mtp_angle_r	hip_flexion_l	hip_adduction_l	hip_rotation_l	knee_angle_l	knee_angle_l_beta	ankle_angle_l	subtalar_angle_l	mtp_angle_l	lumbar_extension	lumbar_bending	lumbar_rotation	arm_flex_r	arm_add_r	arm_rot_r	elbow_flex_r	pro_sup_r	arm_flex_l	arm_add_l	arm_rot_l	elbow_flex_l	pro_sup_l
      5.72881360	     -2.55977093	      0.25794158	      3.19296759	     -0.12889094	      0.99400049	     -0.01284829	     37.04830941	     -1.83744779	     -2.22502157	     23.78680479	      0.41515806	      1.96898535	    -20.67129671	     -7.49999987	     -4.19565303	      3.48655311	      5.47201615	     14.69137209	      0.25641281	     22.86181666	      3.21913485	     -7.49999987	     -7.43114563	     -0.90642267	     -7.18438078	     26.96617814	    -11.70847101	      3.23188091	    135.48721535	     89.35506910	    379.28037930	    -17.95554828	    357.90024854	    131.71076963	     85.82399927
      5.74576270	     -2.45088774	      0.33058384	      2.77364289	     -0.12943496	      1.00513995	     -0.01278915	     36.42072071	     -1.32437323	     -2.00832580	     23.61211057	      0.41210907	      1.80479302	    -20.71812900	     -7.49999987	     -4.36043328	      3.44364886	      4.95838641	     14.07477905	      0.24565124	     21.67088280	      3.98357709	     -7.49999987	     -7.40544185	     -1.02192916	     -7.53646465	     21.09345911	     -9.29193412	      4.92393325	    134.21124329	     88.47076486	    371.62837874	    -17.74264867	    356.57457729	    130.93611489	     85.17053550
      5.76271190	     -2.34593909	      0.26379987	      2.58926543	     -0.13505168	      1.01160189	     -0.00810595	     35.71511954	     -0.80319407	     -2.19044064	     23.48263505	      0.40984930	      1.53349332	    -21.12387679	     -7.49999987	     -4.39692341	      3.20771857	      4.53153634	     13.56390916	      0.23673487	     20.54542136	      4.77996600	     -7.49999987	     -7.06590624	     -1.36718016	     -5.24521518	     13.34186730	     -7.88498134	      2.51106326	    132.92323442	     88.93304112	    367.66810252	    -16.35882965	    358.73537320	    126.52580563	     85.62572868
      5.77966100	     -1.73629780	     -0.14889218	      2.22745576	     -0.13605478	      1.01947172	     -0.00843518	     34.57275486	     -0.03198238	     -2.26033333	     24.67023262	      0.43057679	      1.63654669	    -21.25770882	     -7.49999987	     -5.29764390	      2.82283743	      4.34582681	     12.92309182	      0.22555050	     19.24239811	      5.61610747	     -7.49999987	     -7.15244613	     -0.88356132	     -4.82382424	      6.82355945	     -6.33773784	      1.25136613	    129.10054597	     88.47399545	    361.75569309	    -14.67035251	    357.95941792	    122.28489341	     85.23558782
      5.79661020	     -1.60402575	     -0.59475132	      1.82007620	     -0.14201079	      1.02288554	     -0.01299017	     33.93091483	      0.35707281	     -2.59950029	     25.90349189	      0.45210122	      1.51562671	    -22.30045450	     -7.49999987	     -5.65187047	      2.61488998	      4.25860015	     12.00077017	      0.20945295	     18.23367122	      6.51739058	     -7.49999987	     -6.61696794	     -0.08488505	     -4.07806960	      1.40416333	     -5.48136870	      1.10117504	    124.70351992	     87.23241096	    356.76135655	    -11.95286617	    357.23603245	    117.30847197	     84.22666578
      5.81355930	     -1.44118600	     -1.25452913	      1.34855021	     -0.14326243	      1.02601965	     -0.01247244	     32.93700567	      0.93989182	     -3.66264152	     26.43417421	      0.46136337	      1.70947116	    -22.96050756	     -7.49999987	     -6.56061269	      2.18770176	      4.66522775	     10.31903280	      0.18010110	     17.01824980	      6.53342838	     -7.49999987	     -5.98672169	      0.85455870	     -3.77537396	     -4.01358387	     -4.63314777	      0.17658523	    118.61263416	     86.59010937	    352.93954759	     -9.38852261	    356.31973236	    110.68843801	     83.88699311
      5.83050850	     -1.50095989	     -2.08681655	      0.95734633	     -0.14395797	      1.03169285	     -0.01249157	     31.67138093	      1.55498824	     -5.54718719	     26.78946361	      0.46756434	      1.86162920	    -23.60000093	     -7.49999987	     -7.52903123	      1.55170238	      5.28452694	      8.13298398	      0.14194735	     15.43462366	      6.40854862	     -7.49999987	     -5.03075249	      2.12480441	     -3.61992655	     -7.99949224	     -3.78705594	     -1.05824409	    110.31821835	     85.32328785	    349.89104276	     -7.13642550	    355.36892912	    103.21219112	     83.00792959
      5.84745760	     -1.56704344	     -3.00606651	      0.77518906	     -0.14439700	      1.03092820	     -0.01230905	     29.88659935	      2.28578929	     -5.92444971	     26.79047822	      0.46758205	      2.45323652	    -23.71604709	     -7.49999987	     -8.21637587	      0.68825832	      6.06170346	      6.53430795	      0.11404519	     14.38715530	      5.61876786	     -7.49999987	     -4.09913123	      3.50036149	     -2.98677251	    -10.13088004	     -3.43654399	     -1.99661200	    100.94873122	     84.38968093	    347.55413176	     -5.10852600	    353.78755235	     93.73841225	     82.40935905
      5.86440680	     -2.19317475	     -3.62531081	      0.71604062	     -0.15491456	      1.02954360	     -0.01177016	     29.11016157	      2.86668043	     -5.73041704	     27.39569492	      0.47814508	      3.48304063	    -23.19381732	     -7.49999987	     -8.05912640	     -0.02550588	      6.90958643	      4.91345740	      0.08575601	     13.38544842	      4.76310298	     -7.49999987	     -2.89528715	      4.51362977	     -2.96100601	    -11.84575874	     -3.36955518	     -3.59686990	     90.81389764	     83.36254126	    347.03430672	     -3.41480942	    350.60612056	     85.06748116	     82.08382578
